<svg width="54" height="73" viewBox="0 0 54 73" fill="none" xmlns="http://www.w3.org/2000/svg">
<path d="M8.67757 41.2654L0 65.8715L8.73046 65.7865L19.4974 41.2654H8.67757Z" fill="#00B2EF"/>
<path d="M19.4969 41.2648L12.7212 67.1569L19.5453 72.7642L26.9994 50.9542V41.2648H19.4969Z" fill="#00B2EF"/>
<path d="M17.1411 41.2648L8.73096 65.7859L11.0266 65.7637L12.7223 67.1569L21.6027 41.2648H17.1411Z" fill="#2A2E6D"/>
<path d="M45.3223 41.2648L53.9999 65.8709L45.2694 65.7859L34.5024 41.2648H45.3223Z" fill="#00B2EF"/>
<path d="M34.5025 41.2654L41.2782 67.1575L34.4541 72.7648L27 50.9548V41.2654H34.5025Z" fill="#00B2EF"/>
<path d="M36.8581 41.2648L45.2682 65.7859L42.9726 65.7637L41.2769 67.1569L32.3965 41.2648H36.8581Z" fill="#2A2E6D"/>
<path d="M26.9991 2.93579L25.4985 26.3344L26.9991 48.8421C39.6759 48.8421 49.9523 38.5656 49.9523 25.889C49.9523 13.2123 39.6759 2.93579 26.9991 2.93579Z" fill="#F9F9F9"/>
<path d="M4.0459 25.8893C4.0459 38.5659 14.3224 48.8423 26.9991 48.8423V2.93604C14.3224 2.93604 4.0459 13.2125 4.0459 25.8893Z" fill="#F9F9F9"/>
<path d="M52.0619 25.8895C52.0619 12.0695 40.8185 0.826172 26.9986 0.826172L25.498 2.32673L26.9986 5.04637C38.4915 5.04637 47.8417 14.3965 47.8417 25.8895C47.8417 37.3824 38.4915 46.7325 26.9986 46.7325L25.498 48.8426L26.9986 50.9527C40.8185 50.9527 52.0619 39.7094 52.0619 25.8895Z" fill="#00B2EF"/>
<path d="M26.9992 46.7325C15.5064 46.7325 6.15623 37.3824 6.15623 25.8895C6.15623 14.3965 15.5064 5.04637 26.9992 5.04637V0.826172C13.1793 0.826172 1.93604 12.0695 1.93604 25.8895C1.93604 39.7094 13.1793 50.9527 26.9992 50.9527V46.7325Z" fill="#00B2EF"/>
<path d="M27.115 32.9445L18.9839 37.496L20.7997 28.3562L13.9575 22.0294L23.2114 20.9319L27.115 12.47L31.0185 20.9319L40.2724 22.0294L33.4302 28.3562L35.246 37.496L27.115 32.9445Z" fill="#00B2EF"/>
</svg>
