<svg width="82" height="82" viewBox="0 0 82 82" fill="none" xmlns="http://www.w3.org/2000/svg">
<path d="M71.0694 67.6852H77.838V74.4537H3.38428V67.6852H10.1528V10.1528C10.1528 9.25525 10.5093 8.39445 11.144 7.75978C11.7787 7.12511 12.6395 6.76855 13.5371 6.76855H67.6852C68.5827 6.76855 69.4436 7.12511 70.0782 7.75978C70.7129 8.39445 71.0694 9.25525 71.0694 10.1528V67.6852ZM27.0741 37.2269V43.9954H37.2269V37.2269H27.0741ZM27.0741 23.6898V30.4584H37.2269V23.6898H27.0741ZM27.0741 50.7639V57.5324H37.2269V50.7639H27.0741ZM43.9954 50.7639V57.5324H54.1482V50.7639H43.9954ZM43.9954 37.2269V43.9954H54.1482V37.2269H43.9954ZM43.9954 23.6898V30.4584H54.1482V23.6898H43.9954Z" fill="#00B2EF"/>
<mask id="mask0_106:437" style="mask-type:alpha" maskUnits="userSpaceOnUse" x="3" y="6" width="75" height="69">
<path d="M71.0694 67.6852H77.838V74.4537H3.38428V67.6852H10.1528V10.1528C10.1528 9.25525 10.5093 8.39445 11.144 7.75978C11.7787 7.12511 12.6395 6.76855 13.5371 6.76855H67.6852C68.5827 6.76855 69.4436 7.12511 70.0782 7.75978C70.7129 8.39445 71.0694 9.25525 71.0694 10.1528V67.6852ZM27.0741 37.2269V43.9954H37.2269V37.2269H27.0741ZM27.0741 23.6898V30.4584H37.2269V23.6898H27.0741ZM27.0741 50.7639V57.5324H37.2269V50.7639H27.0741ZM43.9954 50.7639V57.5324H54.1482V50.7639H43.9954ZM43.9954 37.2269V43.9954H54.1482V37.2269H43.9954ZM43.9954 23.6898V30.4584H54.1482V23.6898H43.9954Z" fill="#00B2EF"/>
</mask>
<g mask="url(#mask0_106:437)">
<rect x="39.667" y="3.77771" width="52.8889" height="71.7778" fill="#2A2E6D"/>
</g>
</svg>
