<svg width="20" height="20" viewBox="0 0 20 20" fill="none" xmlns="http://www.w3.org/2000/svg">
<path d="M9.99967 19.1666C4.93692 19.1666 0.833008 15.0627 0.833008 9.99992C0.833008 4.93717 4.93692 0.833252 9.99967 0.833252C15.0624 0.833252 19.1663 4.93717 19.1663 9.99992C19.1663 15.0627 15.0624 19.1666 9.99967 19.1666ZM9.99967 17.3333C11.9446 17.3333 13.8099 16.5606 15.1851 15.1854C16.5604 13.8101 17.333 11.9448 17.333 9.99992C17.333 8.055 16.5604 6.18974 15.1851 4.81447C13.8099 3.4392 11.9446 2.66659 9.99967 2.66659C8.05475 2.66659 6.18949 3.4392 4.81422 4.81447C3.43896 6.18974 2.66634 8.055 2.66634 9.99992C2.66634 11.9448 3.43896 13.8101 4.81422 15.1854C6.18949 16.5606 8.05475 17.3333 9.99967 17.3333ZM10.9163 9.99992H14.583V11.8333H9.08301V5.41658H10.9163V9.99992Z" fill="#00B2EF"/>
</svg>
