<svg width="131" height="194" viewBox="0 0 131 194" fill="none" xmlns="http://www.w3.org/2000/svg">
<path d="M123.525 -3.26747e-07L119.46 -5.04414e-07L131 44.0628L131 28.5428L123.525 -3.26747e-07Z" fill="#00B2EF"/>
<path d="M131 70.5451L112.525 -8.07572e-07L108.46 -9.85239e-07L131 86.0651L131 70.5451Z" fill="#00B2EF"/>
<path d="M131 112.547L101.525 -1.2884e-06L97.4604 -1.46606e-06L131 128.067L131 112.547Z" fill="#00B2EF"/>
<path d="M131 154.55L90.5249 -1.76922e-06L86.4604 -1.94689e-06L131 170.07L131 154.55Z" fill="#00B2EF"/>
<path d="M130.332 194L79.5249 -2.25005e-06L75.4604 -2.42771e-06L126.267 194L130.332 194Z" fill="#00B2EF"/>
<path d="M119.332 194L68.5249 -2.73087e-06L64.4604 -2.90854e-06L115.267 194L119.332 194Z" fill="#00B2EF"/>
<path d="M108.332 194L57.5249 -3.2117e-06L53.4604 -3.38937e-06L104.267 194L108.332 194Z" fill="#00B2EF"/>
<path d="M97.3317 194L46.5249 -3.69252e-06L42.4604 -3.87019e-06L93.2672 194L97.3317 194Z" fill="#00B2EF"/>
<path d="M86.3317 194L35.5249 -4.17335e-06L31.4604 -4.35102e-06L82.2672 194L86.3317 194Z" fill="#00B2EF"/>
<path d="M75.3317 194L24.5249 -4.65417e-06L20.4604 -4.83184e-06L71.2672 194L75.3317 194Z" fill="#00B2EF"/>
<path d="M64.3317 194L13.5249 -5.135e-06L9.46037 -5.31267e-06L60.2672 194L64.3317 194Z" fill="#00B2EF"/>
<path d="M53.3317 194L2.52492 -5.61582e-06L-0.999985 -5.7699e-06L-0.999985 2.06057L49.2672 194L53.3317 194Z" fill="#00B2EF"/>
<path d="M42.3317 194L-0.999986 28.5428L-0.999987 44.0628L38.2672 194L42.3317 194Z" fill="#00B2EF"/>
<path d="M31.3317 194L-0.999988 70.5451L-0.999989 86.065L27.2672 194L31.3317 194Z" fill="#00B2EF"/>
<path d="M20.3317 194L-0.99999 112.547L-0.99999 128.067L16.2672 194L20.3317 194Z" fill="#00B2EF"/>
<path d="M9.33171 194L-0.999991 154.55L-0.999992 170.07L5.26717 194L9.33171 194Z" fill="#00B2EF"/>
</svg>
