<svg width="78" height="76" viewBox="0 0 78 76" fill="none" xmlns="http://www.w3.org/2000/svg">
<path d="M76.4865 50.8358C74.8095 48.4408 71.5084 47.8587 69.1134 49.5357L52.8842 60.8995C52.2485 61.3447 51.4913 61.5833 50.7153 61.5833H38.7222V72.1714H51.669C53.9972 72.1714 56.2688 71.4552 58.1758 70.1198L75.1862 58.2089C77.5814 56.5319 78.1636 53.2308 76.4865 50.8358Z" fill="#FABE8C"/>
<path d="M52.8842 60.8997C52.2485 61.3449 51.4913 61.5835 50.7153 61.5835L38.7222 60.6536V66.1213H50.9741C56.3954 66.1213 60.8059 61.7108 60.8059 56.2895C60.8059 55.9838 60.7899 55.6819 60.7625 55.3833L52.8842 60.8997Z" fill="#E6A578"/>
<path d="M76.4866 50.8357C74.8096 48.4407 71.5085 47.8587 69.1135 49.5357L55.4644 59.0929C55.9732 58.2796 56.2683 57.3191 56.2683 56.2892C56.2683 53.3654 53.8981 50.9952 50.9743 50.9952H38.1173L36.6374 49.8852C33.6901 47.6747 30.0381 46.4574 26.3539 46.4574C23.2481 46.4574 20.199 47.3019 17.536 48.8998C17.536 48.8998 15.0128 50.4137 13.5046 51.3185C12.8212 51.7286 12.4033 52.4671 12.4033 53.264V69.9025C12.4033 71.1555 13.4192 72.1714 14.6722 72.1714H51.6692C53.9973 72.1714 56.2689 71.4552 58.176 70.1197L75.1864 58.2088C77.5816 56.5318 78.1638 53.2308 76.4866 50.8357Z" fill="#FFD2AA"/>
<path d="M60.7627 55.3833L55.4644 59.0932C55.4316 59.1457 55.3987 59.1983 55.3641 59.2495C54.4128 60.6577 52.8016 61.5835 50.9743 61.5835H35.0921C33.8391 61.5835 32.8232 62.5994 32.8232 63.8524C32.8232 65.1055 33.8391 66.1213 35.0921 66.1213H50.9743C56.3955 66.1213 60.8061 61.7108 60.8061 56.2895C60.8061 55.9838 60.7901 55.6819 60.7627 55.3833Z" fill="#FABE8C"/>
<path d="M14.6721 75.1966H2.26888C1.01585 75.1966 0 74.1807 0 72.9277V47.2137C0 45.9607 1.01585 44.9448 2.26888 44.9448H14.6721C15.9251 44.9448 16.941 45.9607 16.941 47.2137V72.9277C16.941 74.1807 15.9251 75.1966 14.6721 75.1966Z" fill="#00B2EF"/>
<path d="M47.6578 43.6865C36.6905 43.6865 27.8003 34.7963 27.8003 23.829C27.8003 12.8617 36.6905 3.97144 47.6578 3.97144C58.6252 3.97144 67.5154 12.8617 67.5154 23.829C67.5154 34.7963 58.6252 43.6865 47.6578 43.6865ZM47.6578 39.715C51.8711 39.715 55.9118 38.0413 58.891 35.0621C61.8702 32.0829 63.5439 28.0422 63.5439 23.829C63.5439 19.6157 61.8702 15.5751 58.891 12.5959C55.9118 9.61665 51.8711 7.94294 47.6578 7.94294C43.4446 7.94294 39.4039 9.61665 36.4247 12.5959C33.4455 15.5751 31.7718 19.6157 31.7718 23.829C31.7718 28.0422 33.4455 32.0829 36.4247 35.0621C39.4039 38.0413 43.4446 39.715 47.6578 39.715ZM49.6436 23.829H57.5866V27.8005H45.6721V13.9002H49.6436V23.829Z" fill="#00B2EF"/>
</svg>
