<svg width="45" height="69" viewBox="0 0 45 69" fill="none" xmlns="http://www.w3.org/2000/svg">
<path d="M8.12074 23.588L18.2699 16.216C19.4092 15.3822 20.795 14.9541 22.2061 15C23.9272 15.0429 25.5921 15.621 26.9695 16.6539C28.3469 17.6868 29.3682 19.1232 29.8916 20.7633C30.4806 22.6095 31.0189 23.8572 31.5066 24.5063C32.9801 26.4722 34.8915 28.0676 37.0891 29.1659C39.2867 30.2641 41.7101 30.8351 44.1669 30.8333V37.1667C40.8967 37.1702 37.6663 36.4487 34.7084 35.0541C31.7505 33.6594 29.1385 31.6263 27.0606 29.1012L24.8534 41.6253L31.3799 47.1037L38.4194 66.4457L32.4661 68.6117L26.0061 50.8657L15.2711 41.8565C14.3901 41.1451 13.716 40.2105 13.3189 39.1501C12.9218 38.0897 12.8162 36.9422 13.0132 35.8272L14.6251 26.6913L12.4812 28.2493L5.74574 37.5213L0.62207 33.7973L8.0669 23.55L8.12074 23.588ZM26.7502 13.4167C25.0705 13.4167 23.4596 12.7494 22.2719 11.5617C21.0842 10.3739 20.4169 8.76304 20.4169 7.08333C20.4169 5.40363 21.0842 3.79272 22.2719 2.60499C23.4596 1.41726 25.0705 0.75 26.7502 0.75C28.4299 0.75 30.0408 1.41726 31.2286 2.60499C32.4163 3.79272 33.0836 5.40363 33.0836 7.08333C33.0836 8.76304 32.4163 10.3739 31.2286 11.5617C30.0408 12.7494 28.4299 13.4167 26.7502 13.4167ZM17.3389 55.1565L7.16124 67.2848L2.3099 63.2157L11.7339 51.9867L14.0962 45.0833L19.7677 49.8333L17.3389 55.1565Z" fill="white"/>
</svg>
