<svg width="18" height="18" viewBox="0 0 18 18" fill="none" xmlns="http://www.w3.org/2000/svg">
<path fill-rule="evenodd" clip-rule="evenodd" d="M9.07863 0.466797C6.75949 0.466797 6.46844 0.47693 5.55758 0.518353C4.64849 0.559953 4.02797 0.703777 3.48501 0.914802C2.92337 1.13276 2.44694 1.42432 1.9723 1.89881C1.49729 2.37313 1.20553 2.84922 0.986712 3.41029C0.775007 3.95306 0.630906 4.57333 0.589988 5.48143C0.549248 6.39166 0.538574 6.68268 0.538574 9.00022C0.538574 11.3178 0.548893 11.6077 0.590166 12.5179C0.631973 13.4264 0.775897 14.0465 0.98689 14.5891C1.20518 15.1503 1.49694 15.6264 1.97176 16.1007C2.44623 16.5754 2.92265 16.8677 3.48394 17.0856C4.02725 17.2967 4.64796 17.4405 5.55686 17.4821C6.46773 17.5235 6.7586 17.5336 9.07757 17.5336C11.3969 17.5336 11.6871 17.5235 12.5979 17.4821C13.507 17.4405 14.1282 17.2967 14.6716 17.0856C15.233 16.8677 15.7087 16.5754 16.1832 16.1007C16.6582 15.6264 16.95 15.1503 17.1688 14.5893C17.3787 14.0465 17.5228 13.4262 17.5655 12.5181C17.6064 11.6079 17.6171 11.3178 17.6171 9.00022C17.6171 6.68268 17.6064 6.39184 17.5655 5.4816C17.5228 4.57315 17.3787 3.95306 17.1688 3.41047C16.95 2.84922 16.6582 2.37313 16.1832 1.89881C15.7082 1.42414 15.2332 1.13258 14.671 0.914802C14.1266 0.703777 13.5058 0.559953 12.5967 0.518353C11.6858 0.47693 11.3958 0.466797 9.07597 0.466797H9.07863ZM8.31255 2.00457C8.53991 2.00421 8.7936 2.00457 9.0786 2.00457C11.3586 2.00457 11.6288 2.01274 12.5292 2.05363C13.3618 2.09168 13.8137 2.2307 14.1147 2.3475C14.5132 2.50217 14.7973 2.68706 15.096 2.98573C15.3949 3.2844 15.5799 3.56885 15.735 3.96708C15.8519 4.26752 15.9912 4.71908 16.0291 5.55109C16.07 6.45066 16.0789 6.72088 16.0789 8.99824C16.0789 11.2756 16.07 11.5458 16.0291 12.4454C15.991 13.2774 15.8519 13.729 15.735 14.0294C15.5802 14.4276 15.3949 14.7112 15.096 15.0097C14.7971 15.3084 14.5134 15.4932 14.1147 15.6479C13.814 15.7652 13.3618 15.9039 12.5292 15.942C11.629 15.9828 11.3586 15.9917 9.0786 15.9917C6.79841 15.9917 6.52818 15.9828 5.62799 15.942C4.7954 15.9036 4.34353 15.7645 4.04234 15.6477C3.64384 15.4931 3.35919 15.3082 3.06031 15.0095C2.76144 14.7108 2.57642 14.4271 2.42129 14.0287C2.3044 13.7282 2.16511 13.2767 2.12721 12.4447C2.08629 11.5451 2.07811 11.2749 2.07811 8.99611C2.07811 6.71733 2.08629 6.44852 2.12721 5.54896C2.16528 4.71695 2.3044 4.26539 2.42129 3.96459C2.57606 3.56636 2.76144 3.28191 3.06031 2.98324C3.35919 2.68457 3.64384 2.49968 4.04234 2.34466C4.34335 2.22732 4.7954 2.08866 5.62799 2.05043C6.41574 2.01488 6.72103 2.00421 8.31255 2.00243V2.00457ZM13.6368 3.42147C13.0711 3.42147 12.6121 3.87961 12.6121 4.44513C12.6121 5.01047 13.0711 5.46914 13.6368 5.46914C14.2026 5.46914 14.6616 5.01047 14.6616 4.44513C14.6616 3.87979 14.2026 3.42147 13.6368 3.42147ZM9.07865 4.61793C6.65685 4.61793 4.69334 6.58008 4.69334 9.0002C4.69334 11.4203 6.65685 13.3816 9.07865 13.3816C11.5004 13.3816 13.4632 11.4203 13.4632 9.0002C13.4632 6.58008 11.5004 4.61793 9.07865 4.61793ZM9.07862 6.15572C10.6506 6.15572 11.9251 7.42916 11.9251 9.0002C11.9251 10.5711 10.6506 11.8447 9.07862 11.8447C7.50649 11.8447 6.23217 10.5711 6.23217 9.0002C6.23217 7.42916 7.50649 6.15572 9.07862 6.15572Z" fill="white"/>
</svg>
