<svg width="132" height="76" viewBox="0 0 132 76" fill="none" xmlns="http://www.w3.org/2000/svg">
<path d="M124.525 -3.26747e-07L120.46 -5.04414e-07L132 17.2617L132 11.1817L124.525 -3.26747e-07Z" fill="#F2F2F2"/>
<path d="M132 27.6362L113.525 -8.07572e-07L109.46 -9.85239e-07L132 33.7162L132 27.6362Z" fill="#F2F2F2"/>
<path d="M132 44.0907L102.525 -1.2884e-06L98.4604 -1.46606e-06L132 50.1707L132 44.0907Z" fill="#F2F2F2"/>
<path d="M132 60.5452L91.5249 -1.76922e-06L87.4604 -1.94689e-06L132 66.6252L132 60.5452Z" fill="#F2F2F2"/>
<path d="M131.332 76L80.5249 -2.25005e-06L76.4604 -2.42772e-06L127.267 76L131.332 76Z" fill="#F2F2F2"/>
<path d="M120.332 76L69.5249 -2.73087e-06L65.4604 -2.90854e-06L116.267 76L120.332 76Z" fill="#F2F2F2"/>
<path d="M109.332 76L58.5249 -3.2117e-06L54.4604 -3.38937e-06L105.267 76L109.332 76Z" fill="#F2F2F2"/>
<path d="M98.3317 76L47.5249 -3.69252e-06L43.4604 -3.87019e-06L94.2672 76L98.3317 76Z" fill="#F2F2F2"/>
<path d="M87.3317 76L36.5249 -4.17335e-06L32.4604 -4.35102e-06L83.2672 76L87.3317 76Z" fill="#F2F2F2"/>
<path d="M76.3317 76L25.5249 -4.65418e-06L21.4604 -4.83184e-06L72.2672 76L76.3317 76Z" fill="#F2F2F2"/>
<path d="M65.3317 76L14.5249 -5.135e-06L10.4604 -5.31267e-06L61.2672 76L65.3317 76Z" fill="#F2F2F2"/>
<path d="M54.3317 76L3.5249 -5.61582e-06L0 -5.7699e-06L-3.52854e-08 0.80723L50.2672 76L54.3317 76Z" fill="#F2F2F2"/>
<path d="M43.3317 76L-4.88769e-07 11.1817L-7.54534e-07 17.2617L39.2672 76L43.3317 76Z" fill="#F2F2F2"/>
<path d="M32.3317 76L-1.20802e-06 27.6362L-1.47378e-06 33.7162L28.2672 76L32.3317 76Z" fill="#F2F2F2"/>
<path d="M21.3317 76L-1.92727e-06 44.0907L-2.19303e-06 50.1707L17.2672 76L21.3317 76Z" fill="#F2F2F2"/>
<path d="M10.3317 76L-2.64651e-06 60.5452L-2.91228e-06 66.6252L6.26716 76L10.3317 76Z" fill="#F2F2F2"/>
</svg>
