<svg width="62" height="117" viewBox="0 0 62 117" fill="none" xmlns="http://www.w3.org/2000/svg">
<path d="M56.2238 -2.52486e-07L53.083 -3.89775e-07L62 33.8421L62 21.9221L56.2238 -2.52486e-07Z" fill="white"/>
<path d="M62 54.1815L47.7238 -6.24033e-07L44.583 -7.61321e-07L62 66.1015L62 54.1815Z" fill="white"/>
<path d="M62 86.441L39.2238 -9.9558e-07L36.083 -1.13287e-06L62 98.361L62 86.441Z" fill="white"/>
<path d="M62 118.7L30.7238 -1.36713e-06L27.583 -1.50441e-06L62 130.62L62 118.7Z" fill="white"/>
<path d="M61.4836 149L22.2238 -1.73867e-06L19.083 -1.87596e-06L58.3428 149L61.4836 149Z" fill="white"/>
<path d="M52.9836 149L13.7238 -2.11022e-06L10.583 -2.24751e-06L49.8428 149L52.9836 149Z" fill="white"/>
<path d="M44.4836 149L5.22378 -2.48177e-06L2.083 -2.61906e-06L41.3428 149L44.4836 149Z" fill="white"/>
<path d="M35.9836 149L-3.27621 -2.85331e-06L-6.417 -2.9906e-06L32.8428 149L35.9836 149Z" fill="white"/>
<path d="M27.4836 149L-11.7762 -3.22486e-06L-14.917 -3.36215e-06L24.3428 149L27.4836 149Z" fill="white"/>
<path d="M18.9836 149L-20.2762 -3.59641e-06L-23.417 -3.7337e-06L15.8428 149L18.9836 149Z" fill="white"/>
<path d="M10.4836 149L-28.7762 -3.96795e-06L-31.917 -4.10524e-06L7.34281 149L10.4836 149Z" fill="white"/>
<path d="M1.9836 149L-37.2762 -4.3395e-06L-40 -4.45856e-06L-40 1.5826L-1.15719 149L1.9836 149Z" fill="white"/>
<path d="M-6.5164 149L-40 21.9221L-40 33.8421L-9.65719 149L-6.5164 149Z" fill="white"/>
<path d="M-15.0164 149L-40 54.1815L-40 66.1015L-18.1572 149L-15.0164 149Z" fill="white"/>
<path d="M-23.5164 149L-40 86.441L-40 98.3609L-26.6572 149L-23.5164 149Z" fill="white"/>
<path d="M-32.0164 149L-40 118.7L-40 130.62L-35.1572 149L-32.0164 149Z" fill="white"/>
</svg>
