<svg width="55" height="55" viewBox="0 0 55 55" fill="none" xmlns="http://www.w3.org/2000/svg">
<path d="M20.5832 14.75C20.5823 18.1918 21.4847 21.5736 23.2002 24.5574C24.9158 27.5413 27.3843 30.0226 30.3592 31.7536C33.3341 33.4845 36.7112 34.4044 40.153 34.4214C43.5948 34.4383 46.9807 33.5517 49.9725 31.8502C48.7901 44.3238 38.2832 54.0833 25.4998 54.0833C11.9225 54.0833 0.916504 43.0774 0.916504 29.5C0.916504 16.7167 10.6761 6.20975 23.1497 5.02729C21.4622 7.98943 20.5775 11.3409 20.5832 14.75ZM5.83317 29.5C5.83317 34.7159 7.90519 39.7182 11.5934 43.4064C15.2816 47.0947 20.2839 49.1667 25.4998 49.1667C28.9746 49.1665 32.3874 48.2463 35.3914 46.4997C38.3953 44.7532 40.8833 42.2424 42.6025 39.2227C41.8256 39.2965 41.039 39.3333 40.2498 39.3333C26.6725 39.3333 15.6665 28.3274 15.6665 14.75C15.6665 13.9609 15.7034 13.1767 15.7771 12.3974C12.7574 14.1165 10.2467 16.6045 8.50011 19.6085C6.75353 22.6124 5.83338 26.0252 5.83317 29.5ZM40.653 5.63204L42.7082 6.14583V8.60417L40.653 9.11796C39.7887 9.33413 38.9993 9.7811 38.3693 10.4111C37.7393 11.0411 37.2923 11.8305 37.0761 12.6948L36.5623 14.75H34.104L33.5902 12.6948C33.374 11.8305 32.9271 11.0411 32.2971 10.4111C31.6671 9.7811 30.8777 9.33413 30.0133 9.11796L27.9582 8.60417V6.14583L30.0133 5.63204C30.8772 5.41548 31.6661 4.96833 32.2956 4.33835C32.9252 3.70837 33.3718 2.91921 33.5878 2.05517L34.104 0H36.5623L37.0761 2.05517C37.2923 2.91951 37.7393 3.70888 38.3693 4.33889C38.9993 4.9689 39.7887 5.41587 40.653 5.63204ZM52.9447 17.9237L54.9998 18.4375V20.8958L52.9447 21.4096C52.0803 21.6258 51.291 22.0728 50.661 22.7028C50.0309 23.3328 49.584 24.1222 49.3678 24.9865L48.854 27.0417H46.3957L45.8819 24.9865C45.6657 24.1222 45.2187 23.3328 44.5887 22.7028C43.9587 22.0728 43.1694 21.6258 42.305 21.4096L40.2498 20.8958V18.4375L42.305 17.9237C43.1694 17.7075 43.9587 17.2606 44.5887 16.6306C45.2187 16.0005 45.6657 15.2112 45.8819 14.3468L46.3957 12.2917H48.854L49.3678 14.3468C49.584 15.2112 50.0309 16.0005 50.661 16.6306C51.291 17.2606 52.0803 17.7075 52.9447 17.9237Z" fill="white"/>
</svg>
