<svg width="51" height="68" viewBox="0 0 51 68" fill="none" xmlns="http://www.w3.org/2000/svg">
<path d="M21.7189 23.4688L16.0002 25.55V36.625H9.7502V21.1562H9.79707L26.2596 15.1625C27.0221 14.8719 27.8533 14.725 28.7033 14.7531C30.4018 14.7955 32.0448 15.366 33.4041 16.3853C34.7633 17.4046 35.7713 18.822 36.2877 20.4406C36.8689 22.2625 37.4002 23.4938 37.8814 24.1344C39.3359 26.0738 41.2223 27.6476 43.391 28.7309C45.5597 29.8141 47.951 30.3771 50.3752 30.375V36.625C47.148 36.6285 43.9602 35.9165 41.0411 34.5402C38.1221 33.1639 35.5445 31.1576 33.4939 28.6656L31.3158 41.0281L37.8752 46.5312V67.875H31.6252V49.4437L24.5314 43.4938L22.2596 56.3906L0.71582 52.5938L1.80332 46.4375L17.1908 49.15L21.7189 23.4688ZM33.1877 13.1875C31.5301 13.1875 29.9404 12.529 28.7683 11.3569C27.5962 10.1848 26.9377 8.5951 26.9377 6.9375C26.9377 5.2799 27.5962 3.69018 28.7683 2.51808C29.9404 1.34598 31.5301 0.6875 33.1877 0.6875C34.8453 0.6875 36.435 1.34598 37.6071 2.51808C38.7792 3.69018 39.4377 5.2799 39.4377 6.9375C39.4377 8.5951 38.7792 10.1848 37.6071 11.3569C36.435 12.529 34.8453 13.1875 33.1877 13.1875Z" fill="white"/>
</svg>
