<svg width="49" height="58" viewBox="0 0 49 58" fill="none" xmlns="http://www.w3.org/2000/svg">
<path d="M37.4938 36.8685C40.0634 34.2987 41.8132 31.0246 42.5221 27.4602C43.2309 23.8959 42.8669 20.2014 41.4761 16.8439C40.0853 13.4864 37.7301 10.6167 34.7084 8.59774C31.6867 6.57875 28.1342 5.50112 24.5 5.50112C20.8659 5.50112 17.3133 6.57875 14.2916 8.59774C11.2699 10.6167 8.91472 13.4864 7.5239 16.8439C6.13309 20.2014 5.76909 23.8959 6.47794 27.4602C7.1868 31.0246 8.93666 34.2987 11.5063 36.8685L24.5 49.8623L37.4938 36.8685ZM24.5 57.2858L7.79451 40.5803C4.49052 37.2763 2.24049 33.0667 1.32894 28.4839C0.417385 23.9011 0.885255 19.1509 2.67338 14.834C4.46151 10.5171 7.48959 6.82745 11.3747 4.23151C15.2598 1.63557 19.8274 0.25 24.5 0.25C29.1726 0.25 33.7402 1.63557 37.6253 4.23151C41.5104 6.82745 44.5385 10.5171 46.3266 14.834C48.1148 19.1509 48.5826 23.9011 47.6711 28.4839C46.7595 33.0667 44.5095 37.2763 41.2055 40.5803L24.5 57.2858ZM27.125 23.8748H37.625V29.1248H21.875V10.7498H27.125V23.8748Z" fill="white"/>
</svg>
