<svg width="92" height="68" viewBox="0 0 92 68" fill="none" xmlns="http://www.w3.org/2000/svg">
<path d="M24.8706 40.3231V56.9314H83.2422C84.9099 56.9314 86.2619 55.5794 86.2619 53.9117C86.2619 52.4455 86.2619 41.7864 86.2619 40.3231L55.5661 36.2966L24.8706 40.3231Z" fill="#2A2E6D"/>
<path d="M80.2218 39.5179V50.8921H24.8701V56.9315H83.2417C84.9094 56.9315 86.2614 55.5795 86.2614 53.9118C86.2614 52.5223 86.2614 41.6861 86.2614 40.3232L80.2218 39.5179Z" fill="#2A2E6D"/>
<path d="M88.9799 0.529297H33.9305C32.2628 0.529297 30.9108 1.88131 30.9108 3.54899V12.9593H10.7725C7.94769 12.9593 5.50013 14.9177 4.88029 17.6737L2.59479 27.8372C2.00776 30.4478 1.71143 33.1156 1.71143 35.7914V56.9311H30.9108C30.9108 56.4396 30.9108 48.971 30.9108 40.3228H88.98C90.6477 40.3228 91.9997 38.9707 91.9997 37.3031V3.54899C91.9995 1.88111 90.6477 0.529297 88.9799 0.529297Z" fill="#00B2EF"/>
<path d="M1.50985 56.9311H12.5611V50.8917H1.50985C0.676008 50.8917 0 51.5677 0 52.4016V55.4213C0 56.2553 0.676008 56.9311 1.50985 56.9311Z" fill="#00B2EF"/>
<path d="M24.8715 18.9988H10.4124L7.5415 31.7654H24.8715V18.9988Z" fill="white"/>
<path d="M71.6666 67.4998C77.5036 67.4998 82.2355 62.7679 82.2355 56.9309C82.2355 51.0938 77.5036 46.3619 71.6666 46.3619C65.8295 46.3619 61.0977 51.0938 61.0977 56.9309C61.0977 62.7679 65.8295 67.4998 71.6666 67.4998Z" fill="#00B2EF"/>
<path d="M73.828 46.5852C72.5892 48.8739 72.9356 51.7938 74.8702 53.7282L68.4645 60.134C66.5301 58.1993 63.6102 57.8527 61.3213 59.0918C62.3214 63.8864 66.58 67.5 71.6673 67.5C77.4951 67.5 82.2363 62.7589 82.2363 56.9311C82.2361 51.8437 78.6227 47.5853 73.828 46.5852Z" fill="#00B2EF"/>
<path d="M71.6663 61.4606C74.1679 61.4606 76.1958 59.4326 76.1958 56.931C76.1958 54.4294 74.1679 52.4015 71.6663 52.4015C69.1647 52.4015 67.1367 54.4294 67.1367 56.931C67.1367 59.4326 69.1647 61.4606 71.6663 61.4606Z" fill="white"/>
<path d="M20.3419 67.4998C26.1789 67.4998 30.9108 62.7679 30.9108 56.9309C30.9108 51.0938 26.1789 46.3619 20.3419 46.3619C14.5048 46.3619 9.77295 51.0938 9.77295 56.9309C9.77295 62.7679 14.5048 67.4998 20.3419 67.4998Z" fill="#00B2EF"/>
<path d="M22.5038 46.5852C21.2649 48.8739 21.6114 51.7938 23.546 53.7282L17.1402 60.134C15.2058 58.1993 12.286 57.8527 9.99707 59.0918C10.9972 63.8864 15.2558 67.5 20.3431 67.5C26.1709 67.5 30.912 62.7589 30.912 56.9311C30.912 51.8437 27.2987 47.5853 22.5038 46.5852Z" fill="#00B2EF"/>
<path d="M20.3415 61.4606C22.8431 61.4606 24.8711 59.4326 24.8711 56.931C24.8711 54.4294 22.8431 52.4015 20.3415 52.4015C17.84 52.4015 15.812 54.4294 15.812 56.931C15.812 59.4326 17.84 61.4606 20.3415 61.4606Z" fill="white"/>
</svg>
