<svg width="16" height="14" viewBox="0 0 16 14" fill="none" xmlns="http://www.w3.org/2000/svg">
<path fill-rule="evenodd" clip-rule="evenodd" d="M7.63149 4.0051L7.66509 4.55873L7.10512 4.49094C5.06682 4.23107 3.28611 3.34977 1.77419 1.86964L1.03502 1.13523L0.844632 1.67757C0.441452 2.88653 0.699039 4.16328 1.539 5.02198C1.98697 5.49653 1.88618 5.56432 1.11342 5.28185C0.844632 5.19146 0.609444 5.12367 0.587045 5.15757C0.508649 5.23666 0.777435 6.26484 0.990225 6.67159C1.28141 7.23653 1.87498 7.79016 2.52455 8.11782L3.07332 8.37769L2.42375 8.38899C1.79658 8.38899 1.77419 8.40029 1.84138 8.63756C2.06537 9.37198 2.95013 10.1516 3.93568 10.4906L4.63004 10.7278L4.02527 11.0894C3.12932 11.6091 2.07657 11.9029 1.02382 11.9255C0.519848 11.9368 0.105469 11.982 0.105469 12.0159C0.105469 12.1289 1.4718 12.7616 2.26696 13.0102C4.65244 13.7446 7.4859 13.4282 9.61379 12.1741C11.1257 11.2815 12.6376 9.50756 13.3432 7.79016C13.724 6.87497 14.1048 5.20276 14.1048 4.40055C14.1048 3.88081 14.1384 3.81302 14.7655 3.19159C15.1351 2.83003 15.4823 2.43458 15.5495 2.32159C15.6615 2.10692 15.6503 2.10692 15.0791 2.299C14.1272 2.63796 13.9928 2.59276 14.4632 2.08432C14.8103 1.72276 15.2247 1.06744 15.2247 0.875359C15.2247 0.841463 15.0567 0.897957 14.8663 0.999645C14.6647 1.11263 14.2168 1.28211 13.8808 1.3838L13.276 1.57588L12.7272 1.20302C12.4249 0.999645 11.9993 0.773671 11.7753 0.705879C11.2041 0.547697 10.3306 0.570295 9.81538 0.751074C8.41545 1.25952 7.5307 2.57016 7.63149 4.0051Z" fill="white"/>
</svg>
