<svg width="20" height="19" viewBox="0 0 20 19" fill="none" xmlns="http://www.w3.org/2000/svg">
<path d="M5.7499 14.6412L6.32347 14.9761C7.29072 15.5398 8.39083 15.8358 9.51055 15.8335C10.764 15.8335 11.9894 15.4621 13.0316 14.7661C14.0738 14.0702 14.8862 13.0811 15.3659 11.9238C15.8455 10.7666 15.9711 9.49314 15.7265 8.26459C15.482 7.03604 14.8784 5.90755 13.992 5.02182C13.1057 4.13609 11.9764 3.5329 10.747 3.28852C9.51758 3.04415 8.24328 3.16957 7.08521 3.64893C5.92714 4.12828 4.93732 4.94004 4.24092 5.98155C3.54452 7.02306 3.17282 8.24755 3.17282 9.50016C3.17282 10.637 3.47149 11.7271 4.03159 12.6858L4.3659 13.259L3.84858 15.1598L5.7499 14.6412ZM1.59156 17.4168L2.66264 13.4838C1.95688 12.2748 1.58609 10.8998 1.58839 9.50016C1.58839 5.12779 5.13514 1.5835 9.51055 1.5835C13.886 1.5835 17.4327 5.12779 17.4327 9.50016C17.4327 13.8725 13.886 17.4168 9.51055 17.4168C8.11053 17.4191 6.73515 17.0488 5.5257 16.3441L1.59156 17.4168ZM6.65144 5.78566C6.7576 5.77775 6.86455 5.77775 6.97071 5.7825C7.01349 5.78566 7.05627 5.79041 7.09905 5.79516C7.22501 5.80941 7.36365 5.8862 7.41039 5.99229C7.64647 6.52745 7.87621 7.06658 8.09803 7.60729C8.14715 7.72762 8.11784 7.882 8.02436 8.03241C7.96006 8.13412 7.89052 8.23242 7.816 8.32691C7.72648 8.4417 7.53397 8.65229 7.53397 8.65229C7.53397 8.65229 7.45554 8.7457 7.48565 8.86208C7.49674 8.90641 7.53318 8.97054 7.56645 9.02437L7.61319 9.09958C7.816 9.43762 8.08853 9.78041 8.42126 10.1034C8.51632 10.1952 8.60901 10.2895 8.70883 10.3773C9.07959 10.7043 9.49946 10.9711 9.95261 11.169L9.95657 11.1706C10.0239 11.1999 10.058 11.2157 10.1562 11.2577C10.2053 11.2782 10.256 11.2965 10.3075 11.3099C10.3607 11.3235 10.4168 11.3209 10.4685 11.3026C10.5203 11.2843 10.5654 11.251 10.5983 11.207C11.1718 10.5127 11.2241 10.4676 11.2289 10.4676V10.4692C11.2687 10.432 11.3161 10.4038 11.3677 10.3865C11.4194 10.3692 11.4741 10.3631 11.5283 10.3686C11.5759 10.3718 11.6242 10.3805 11.6686 10.4003C12.0892 10.5927 12.7777 10.8927 12.7777 10.8927L13.2387 11.0993C13.3164 11.1365 13.3869 11.2244 13.3892 11.3091C13.3924 11.3622 13.3972 11.4477 13.3789 11.6044C13.3536 11.8095 13.2918 12.0557 13.23 12.1847C13.1877 12.2728 13.1315 12.3535 13.0636 12.4238C12.9837 12.5077 12.8962 12.584 12.8022 12.6518C12.7697 12.6762 12.7367 12.7 12.7032 12.723C12.6047 12.7855 12.5034 12.8436 12.3998 12.8972C12.1958 13.0055 11.9705 13.0676 11.7399 13.0793C11.5933 13.0872 11.4467 13.0983 11.2994 13.0904C11.293 13.0904 10.8494 13.0215 10.8494 13.0215C9.72307 12.7254 8.68141 12.1708 7.80729 11.4017C7.62825 11.2442 7.46267 11.0748 7.29314 10.9062C6.58807 10.2055 6.0557 9.4495 5.73247 8.73541C5.56703 8.38493 5.47767 8.00344 5.47025 7.616C5.46698 7.13534 5.62421 6.66732 5.91706 6.286C5.97489 6.21158 6.02955 6.134 6.12383 6.04454C6.22444 5.94954 6.28782 5.89887 6.35674 5.86404C6.44838 5.81815 6.54835 5.79122 6.65065 5.78487L6.65144 5.78566Z" fill="white"/>
</svg>
