<svg width="18" height="13" viewBox="0 0 18 13" fill="none" xmlns="http://www.w3.org/2000/svg">
<path fill-rule="evenodd" clip-rule="evenodd" d="M15.8171 0.49952C16.552 0.70103 17.1307 1.29478 17.3271 2.04878C17.684 3.41533 17.684 6.26663 17.684 6.26663C17.684 6.26663 17.684 9.11784 17.3271 10.4845C17.1307 11.2385 16.552 11.8322 15.8171 12.0338C14.4854 12.4 9.14473 12.4 9.14473 12.4C9.14473 12.4 3.8041 12.4 2.47227 12.0338C1.73741 11.8322 1.15868 11.2385 0.962274 10.4845C0.605469 9.11784 0.605469 6.26663 0.605469 6.26663C0.605469 6.26663 0.605469 3.41533 0.962274 2.04878C1.15868 1.29478 1.73741 0.70103 2.47227 0.49952C3.8041 0.133301 9.14473 0.133301 9.14473 0.133301C9.14473 0.133301 14.4854 0.133301 15.8171 0.49952ZM7.54363 3.86658V9.19991L11.8133 6.53335L7.54363 3.86658Z" fill="white"/>
</svg>
